HIERARCHY
ROOT SpineBase
{
  OFFSET 0.000000 0.000000 0.000000
  CHANNELS 6 Xposition Yposition Zposition Zrotation Xrotation Yrotation
  JOINT SpineMid
  {
    OFFSET 0.000000 27.396238 0.000000
    CHANNELS 3 Zrotation Xrotation Yrotation
    JOINT SpineShoulder
    {
      OFFSET -0.094537 20.331352 -0.649121
      CHANNELS 3 Zrotation Xrotation Yrotation
      JOINT Neck
      {
        OFFSET -0.082212 6.744563 -0.535348
        CHANNELS 3 Zrotation Xrotation Yrotation
        JOINT Head
        {
          OFFSET 1.340788 11.915994 -0.635433
          CHANNELS 3 Zrotation Xrotation Yrotation
          End Site
          {
            OFFSET 0 0 0
          }
        }
      }
      JOINT ShoulderLeft
      {
        OFFSET -11.208410 -3.263419 -8.747663
        CHANNELS 3 Zrotation Xrotation Yrotation
        JOINT ElbowLeft
        {
          OFFSET -1.504721 -20.780704 -4.267249
          CHANNELS 3 Zrotation Xrotation Yrotation
          JOINT WristLeft
          {
            OFFSET 7.212963 -20.129489 -2.612924
            CHANNELS 3 Zrotation Xrotation Yrotation
            JOINT HandLeft
            {
              OFFSET 1.442927 -5.759595 4.748640
              CHANNELS 3 Zrotation Xrotation Yrotation
              JOINT HandTipLeft
              {
                OFFSET -1.543865 -4.570465 -0.290182
                CHANNELS 3 Zrotation Xrotation Yrotation
                End Site
                {
                  OFFSET 0 0 0
                }
              }
              JOINT ThumbLeft
              {
                OFFSET -5.898793 -1.023038 -2.737940
                CHANNELS 3 Zrotation Xrotation Yrotation
                End Site
                {
                  OFFSET 0 0 0
                }
              }
            }
          }
        }
      }
      JOINT ShoulderRight
      {
        OFFSET 11.479626 -3.521295 2.647211
        CHANNELS 3 Zrotation Xrotation Yrotation
        JOINT ElbowRight
        {
          OFFSET 2.989656 -20.484075 3.176275
          CHANNELS 3 Zrotation Xrotation Yrotation
          JOINT WristRight
          {
            OFFSET -2.585141 -22.312021 -14.637044
            CHANNELS 3 Zrotation Xrotation Yrotation
            JOINT HandRight
            {
              OFFSET -2.451444 -1.681321 -1.758551
              CHANNELS 3 Zrotation Xrotation Yrotation
              JOINT HandTipRight
              {
                OFFSET -2.391071 -2.083787 -1.012443
                CHANNELS 3 Zrotation Xrotation Yrotation
                End Site
                {
                  OFFSET 0 0 0
                }
              }
              JOINT ThumbRight
              {
                OFFSET 1.523966 -0.971974 -0.913006
                CHANNELS 3 Zrotation Xrotation Yrotation
                End Site
                {
                  OFFSET 0 0 0
                }
              }
            }
          }
        }
      }
    }
  }
  JOINT HipLeft
  {
    OFFSET -5.689052 1.111922 -5.939164
    CHANNELS 3 Zrotation Xrotation Yrotation
    JOINT KneeLeft
    {
      OFFSET -2.570716 -28.630808 4.983861
      CHANNELS 3 Zrotation Xrotation Yrotation
      JOINT AnkleLeft
      {
        OFFSET 0.211308 -32.343580 11.978920
        CHANNELS 3 Zrotation Xrotation Yrotation
        JOINT FootLeft
        {
          OFFSET 3.396908 -3.844362 -7.393085
          CHANNELS 3 Zrotation Xrotation Yrotation
          End Site
          {
            OFFSET 0 0 0
          }
        }
      }
    }
  }
  JOINT HipRight
  {
    OFFSET 5.252741 -0.016629 -0.424198
    CHANNELS 3 Zrotation Xrotation Yrotation
    JOINT KneeRight
    {
      OFFSET -0.241423 -25.931809 5.803817
      CHANNELS 3 Zrotation Xrotation Yrotation
      JOINT AnkleRight
      {
        OFFSET -5.430219 -35.162385 10.254748
        CHANNELS 3 Zrotation Xrotation Yrotation
        JOINT FootRight
        {
          OFFSET 4.002257 -2.406837 -10.165211
          CHANNELS 3 Zrotation Xrotation Yrotation
          End Site
          {
            OFFSET 0 0 0
          }
        }
      }
    }
  }
}
MOTION
Frames: 6
Frame Time: 0.033333
24.652489 70.356483 369.568523 -0.000000 0.000000 -26.749364 0.000000 0.000000 26.749364 -0.000000 0.000000 0.000000 -0.000000 0.000000 0.000000 0.000000 0.000000 0.000000 -0.000000 0.000000 0.000000 -0.000000 0.000000 0.000000 -0.000000 0.000000 0.000000 -0.000000 0.000000 0.000000 0.000000 0.000000 0.000000 0.000000 0.000000 0.000000 -0.000000 0.000000 0.000000 -0.000000 0.000000 0.000000 -0.000000 0.000000 0.000000 -0.000000 0.000000 0.000000 0.000000 0.000000 0.000000 0.000000 0.000000 0.000000 0.000000 0.000000 26.749364 -0.000000 0.000000 0.000000 -0.000000 0.000000 0.000000 0.000000 0.000000 0.000000 0.000000 0.000000 26.749364 -0.000000 0.000000 0.000000 -0.000000 0.000000 0.000000 0.000000 0.000000 0.000000
24.687570 70.336313 369.600257 0.077233 -0.078983 -26.541244 -0.104387 0.036148 26.541330 -0.000000 0.000000 0.000000 -0.000000 0.000000 0.000000 0.000000 0.000000 0.000000 0.991154 0.043056 -0.207139 -0.990992 -0.046632 0.206363 -2.083720 -0.158458 -1.766638 6.548798 1.102864 1.163910 0.000000 0.000000 0.000000 0.000000 0.000000 0.000000 -0.000000 0.000000 0.000000 -0.000000 0.000000 0.000000 -0.000000 0.000000 0.000000 4.258424 -1.184167 -0.700509 0.000000 0.000000 0.000000 0.000000 0.000000 0.000000 -0.104387 0.036148 26.541330 -0.000000 0.000000 0.000000 0.377586 0.941918 0.101170 0.000000 0.000000 0.000000 -0.104387 0.036148 26.541330 -0.000000 0.000000 0.000000 -3.903178 -7.529541 5.549579 0.000000 0.000000 0.000000
24.690052 70.324107 369.613914 0.099583 -0.123574 -26.352244 -0.144088 0.066528 26.352435 -0.000000 0.000000 0.000000 -0.000000 0.000000 0.000000 0.000000 0.000000 0.000000 1.775813 0.060919 -0.370416 -2.617005 -0.100083 0.468628 -2.955117 -0.208627 -3.318784 12.290248 2.176521 2.002279 0.000000 0.000000 0.000000 0.000000 0.000000 0.000000 -0.000000 0.000000 0.000000 -0.000000 0.000000 0.000000 -0.000000 0.000000 0.000000 8.080166 -2.175074 -1.409844 0.000000 0.000000 0.000000 0.000000 0.000000 0.000000 -0.144088 0.066528 26.352435 -0.000000 0.000000 0.000000 0.681249 1.300279 -0.164417 0.000000 0.000000 0.000000 -0.144088 0.066528 26.352435 -0.000000 0.000000 0.000000 -7.285619 -15.775814 10.974109 0.000000 0.000000 0.000000
24.659937 70.319866 369.609495 0.067073 -0.133813 -26.184016 -0.119236 0.090484 26.184188 -0.000000 0.000000 0.000000 -0.000000 0.000000 0.000000 0.000000 0.000000 0.000000 2.365858 0.056151 -0.491798 -3.470217 -0.088595 0.630408 -4.022503 -0.248468 -4.487810 17.096939 3.061729 2.572224 0.000000 0.000000 0.000000 0.000000 0.000000 0.000000 -0.000000 0.000000 0.000000 -0.608579 0.652223 0.325718 0.604901 -0.655635 -0.318793 11.272314 -2.900736 -2.148566 0.000000 0.000000 0.000000 0.000000 0.000000 0.000000 -0.119236 0.090484 26.184188 -0.000000 0.000000 0.000000 0.914229 1.064547 -0.805919 0.000000 0.000000 0.000000 -0.119236 0.090484 26.184188 -0.000000 0.000000 0.000000 -9.645271 -23.074716 15.461186 0.000000 0.000000 0.000000
24.597223 70.323590 369.586999 -0.020360 -0.109683 -26.037810 -0.029854 0.107488 26.037818 -0.000000 0.000000 0.000000 -0.000000 0.000000 0.000000 0.000000 0.000000 0.000000 2.770235 0.030460 -0.572879 -4.031239 -0.033045 0.747617 -4.809851 -0.279013 -5.323396 20.877523 3.634767 2.947924 0.000000 0.000000 0.000000 0.000000 0.000000 0.000000 -0.000000 0.000000 0.000000 -0.671968 0.728026 0.359002 0.667448 -0.732172 -0.350468 13.688442 -3.305288 -2.937144 0.000000 0.000000 0.000000 0.000000 0.000000 0.000000 -0.029854 0.107488 26.037818 -0.000000 0.000000 0.000000 1.064668 0.201498 -1.849743 0.000000 0.000000 0.000000 -0.361219 -0.686942 25.896911 0.645087 0.569907 0.136023 -10.887857 -27.828874 18.344941 0.000000 0.000000 0.000000
24.501911 70.335280 369.546426 -0.162863 -0.051117 -25.914450 0.124147 0.117153 25.914251 -0.000000 0.000000 0.000000 -0.000000 0.000000 0.000000 0.000000 0.000000 0.000000 2.995076 -0.015197 -0.614846 -4.305412 0.067998 0.821653 -5.316730 -0.317358 -5.824506 23.570031 3.810202 3.199599 0.000000 0.000000 0.000000 0.000000 0.000000 0.000000 -0.812091 0.073367 -0.114828 0.145743 0.660132 0.468872 0.897856 -0.051105 -1.585955 15.096659 -3.691874 -2.404718 0.000000 0.000000 0.000000 0.000000 0.000000 0.000000 0.124147 0.117153 25.914251 -0.000000 0.000000 0.000000 1.101776 -1.346205 -3.341690 0.000000 0.000000 0.000000 -0.119653 -0.782353 25.782500 0.610813 0.703898 0.126583 -11.194285 -29.182604 19.242945 0.000000 0.000000 0.000000
